<svg xmlns="http://www.w3.org/2000/svg" width="1600" height="900" viewBox="0 0 1600 900">
  <defs>
    <linearGradient id="bg" x1="0" y1="0" x2="1" y2="1">
      <stop offset="0" stop-color="#f7f9ff"/>
      <stop offset="1" stop-color="#eef2ff"/>
    </linearGradient>
    <filter id="shadow" x="-20%" y="-20%" width="140%" height="140%">
      <feDropShadow dx="0" dy="10" stdDeviation="12" flood-color="#0b1220" flood-opacity="0.18"/>
    </filter>
  </defs>

  <rect x="0" y="0" width="1600" height="900" fill="url(#bg)"/>

  <rect x="120" y="160" width="1360" height="560" rx="28" fill="#ffffff" filter="url(#shadow)"/>

  <rect x="520" y="230" width="560" height="360" rx="22" fill="#0ea5e9" opacity="0.10"/>
  <rect x="560" y="270" width="480" height="280" rx="18" fill="#0ea5e9" opacity="0.14"/>
  <rect x="585" y="295" width="430" height="230" rx="16" fill="#0ea5e9" opacity="0.18"/>

  <path d="M380 310c44 0 80 36 80 80s-36 80-80 80-80-36-80-80 36-80 80-80z" fill="#111827" opacity="0.06"/>
  <path d="M380 330c33 0 60 27 60 60s-27 60-60 60-60-27-60-60 27-60 60-60z" fill="#111827" opacity="0.10"/>
  <path d="M300 610c10-70 60-110 160-110s150 40 160 110" fill="none" stroke="#111827" stroke-width="18" opacity="0.10" stroke-linecap="round"/>

  <path d="M1220 350c38 0 70 32 70 70s-32 70-70 70-70-32-70-70 32-70 70-70z" fill="#111827" opacity="0.06"/>
  <path d="M1220 368c29 0 52 23 52 52s-23 52-52 52-52-23-52-52 23-52 52-52z" fill="#111827" opacity="0.10"/>
  <path d="M1135 610c10-58 54-92 125-92s115 34 125 92" fill="none" stroke="#111827" stroke-width="18" opacity="0.10" stroke-linecap="round"/>

  <rect x="660" y="360" width="280" height="58" rx="29" fill="#ffffff" opacity="0.85"/>
  <rect x="710" y="450" width="390" height="58" rx="29" fill="#ffffff" opacity="0.85"/>

  <text x="160" y="270" font-family="system-ui, -apple-system, Segoe UI, Roboto, Helvetica, Arial, sans-serif" font-size="54" font-weight="800" fill="#0b1220">GenRole</text>
  <text x="160" y="325" font-family="system-ui, -apple-system, Segoe UI, Roboto, Helvetica, Arial, sans-serif" font-size="28" font-weight="600" fill="#334155">Personalized role play for educators supporting autistic students</text>

  <text x="160" y="705" font-family="system-ui, -apple-system, Segoe UI, Roboto, Helvetica, Arial, sans-serif" font-size="22" fill="#64748b">Publication thumbnail</text>
</svg>
